<?xml version="1.0" encoding="UTF-8"?>
<svg xmlns="http://www.w3.org/2000/svg" xmlns:xlink="http://www.w3.org/1999/xlink" width="64pt" height="64pt" viewBox="0 0 64 64" version="1.1">
<g id="surface1">
<path style=" stroke:none;fill-rule:nonzero;fill:#FAEFDE;fill-opacity:1;" d="M 55 29 L 31 9 L 7 29 L 7 57 L 55 57 Z "/>
<path style=" stroke:none;fill-rule:nonzero;fill:#EFD8BE;fill-opacity:1;" d="M 31 11 L 7 31 L 7 32.730469 C 7 34.425781 8.976563 35.351563 10.28125 34.265625 L 30.359375 17.53125 C 30.730469 17.222656 31.269531 17.222656 31.640625 17.53125 L 51.71875 34.265625 C 53.023438 35.351563 55 34.425781 55 32.730469 L 55 31 Z "/>
<path style=" stroke:none;fill-rule:nonzero;fill:#EFD8BE;fill-opacity:1;" d="M 55 57 L 7 57 L 7 55 C 7 53.34375 8.34375 52 10 52 L 52 52 C 53.65625 52 55 53.34375 55 55 Z "/>
<path style=" stroke:none;fill-rule:nonzero;fill:#ED7899;fill-opacity:1;" d="M 31 13.25 L 57 34 C 58.179688 34.90625 59 33.636719 59 32.148438 L 59 30.425781 C 59 29.867188 58.742188 29.34375 58.300781 29.003906 L 31 7 L 3 29.542969 L 3 31.84375 C 3 33.457031 3.722656 34.984375 5 34 Z "/>
<path style=" stroke:none;fill-rule:nonzero;fill:#C2CDE7;fill-opacity:1;" d="M 40.398438 39.921875 C 40.511719 39.558594 40.800781 39.289063 41.171875 39.199219 L 45 38.238281 L 45 35.761719 L 41.171875 34.800781 C 40.800781 34.710938 40.511719 34.441406 40.398438 34.078125 C 40.230469 33.53125 40 32.96875 39.710938 32.429688 C 39.53125 32.089844 39.539063 31.691406 39.738281 31.371094 L 41.78125 27.980469 L 40.019531 26.21875 L 36.628906 28.261719 C 36.308594 28.460938 35.910156 28.46875 35.570313 28.289063 C 35.03125 28 34.46875 27.769531 33.921875 27.601563 C 33.558594 27.488281 33.289063 27.199219 33.199219 26.828125 L 32.238281 23 L 29.761719 23 L 28.800781 26.828125 C 28.710938 27.199219 28.441406 27.488281 28.078125 27.601563 C 27.53125 27.769531 26.96875 28 26.429688 28.289063 C 26.089844 28.46875 25.691406 28.460938 25.371094 28.261719 L 21.980469 26.21875 L 20.21875 27.980469 L 22.261719 31.371094 C 22.449219 31.691406 22.46875 32.089844 22.289063 32.429688 C 22 32.96875 21.769531 33.53125 21.601563 34.078125 C 21.488281 34.441406 21.199219 34.710938 20.828125 34.800781 L 17 35.761719 L 17 38.238281 L 20.828125 39.199219 C 21.199219 39.289063 21.488281 39.558594 21.601563 39.921875 C 21.769531 40.46875 22 41.03125 22.289063 41.570313 C 22.46875 41.910156 22.449219 42.308594 22.261719 42.628906 L 20.21875 46.019531 L 21.980469 47.78125 L 25.371094 45.738281 C 25.691406 45.539063 26.089844 45.53125 26.429688 45.710938 C 26.96875 46 27.53125 46.230469 28.078125 46.398438 C 28.441406 46.511719 28.710938 46.800781 28.800781 47.171875 L 29.761719 51 L 32.238281 51 L 33.199219 47.171875 C 33.289063 46.800781 33.558594 46.511719 33.921875 46.398438 C 34.46875 46.230469 35.03125 46 35.570313 45.710938 C 35.910156 45.53125 36.308594 45.539063 36.628906 45.738281 L 40.019531 47.78125 L 41.78125 46.019531 L 39.738281 42.628906 C 39.539063 42.308594 39.53125 41.910156 39.710938 41.570313 C 40 41.03125 40.230469 40.46875 40.398438 39.921875 Z M 31 41 C 28.789063 41 27 39.210938 27 37 C 27 34.789063 28.789063 33 31 33 C 33.210938 33 35 34.789063 35 37 C 35 39.210938 33.210938 41 31 41 Z "/>
<path style=" stroke:none;fill-rule:nonzero;fill:#D3DDED;fill-opacity:1;" d="M 45 39 L 41 40 L 41.746094 45.214844 C 41.886719 46.203125 41.203125 47.121094 40.21875 47.273438 L 36 46 C 35.460938 46.289063 34.589844 46.820313 34 47 L 33 51 L 29 51 L 28.648438 49.351563 L 44 34 L 45 37 C 45 37 45.289063 38.460938 45 39 Z "/>
<path style=" stroke:none;fill-rule:nonzero;fill:#D3DDED;fill-opacity:1;" d="M 42 29 C 41.980469 30.351563 40.929688 32.800781 41 33 L 27 47 C 26.578125 46.851563 22.5 48.5 22.5 48.5 L 21.5 46.5 L 28.171875 39.828125 C 28.898438 40.550781 29.898438 41 31 41 C 33.210938 41 35 39.210938 35 37 C 35 35.898438 34.550781 34.898438 33.828125 34.171875 L 41 27 C 41 27 42.019531 27.460938 42 29 Z "/>
<path style=" stroke:none;fill-rule:nonzero;fill:#D3DDED;fill-opacity:1;" d="M 22 42 L 19.449219 39.550781 L 33.539063 25.460938 L 36 28 L 30.414063 33.585938 L 29 34 L 27.789063 36.210938 Z "/>
<path style=" stroke:none;fill-rule:nonzero;fill:#8D6C9F;fill-opacity:1;" d="M 56.730469 35.429688 C 57.097656 35.734375 57.542969 35.886719 57.996094 35.886719 C 58.285156 35.886719 58.578125 35.824219 58.855469 35.691406 C 59.5625 35.359375 60 34.664063 60 33.886719 L 60 30.945313 C 60 30.046875 59.601563 29.199219 58.902344 28.628906 L 32.902344 7.273438 C 31.800781 6.363281 30.199219 6.363281 29.09375 7.273438 L 3.09375 28.628906 C 2.398438 29.199219 2 30.046875 2 30.945313 L 2 33.882813 C 2 34.664063 2.4375 35.359375 3.144531 35.691406 C 3.851563 36.027344 4.664063 35.925781 5.269531 35.429688 L 6 34.828125 L 6 56 L 3 56 C 2.449219 56 2 56.445313 2 57 C 2 57.554688 2.449219 58 3 58 L 59 58 C 59.550781 58 60 57.554688 60 57 C 60 56.445313 59.550781 56 59 56 L 56 56 L 56 34.828125 Z M 4 33.886719 L 4 30.945313 C 4 30.644531 4.132813 30.363281 4.363281 30.175781 L 30.363281 8.816406 C 30.550781 8.664063 30.773438 8.589844 31 8.589844 C 31.226563 8.589844 31.449219 8.664063 31.636719 8.816406 L 57.636719 30.171875 C 57.867188 30.363281 58 30.644531 58 30.945313 L 58 33.882813 L 32.269531 12.75 L 32.269531 12.746094 C 31.535156 12.144531 30.46875 12.144531 29.730469 12.75 Z M 54 56 L 8 56 L 8 33.1875 L 31 14.296875 L 31 14.292969 L 54 33.1875 Z "/>
<path style=" stroke:none;fill-rule:nonzero;fill:#8D6C9F;fill-opacity:1;" d="M 27.933594 23.421875 L 27.152344 26.546875 C 26.878906 26.648438 26.605469 26.761719 26.335938 26.890625 L 23.566406 25.230469 C 22.828125 24.789063 21.886719 24.902344 21.277344 25.511719 L 19.511719 27.277344 C 18.902344 27.886719 18.785156 28.828125 19.230469 29.566406 L 20.890625 32.335938 C 20.765625 32.605469 20.648438 32.878906 20.546875 33.152344 L 17.421875 33.933594 C 16.582031 34.144531 16 34.890625 16 35.753906 L 16 38.246094 C 16 39.109375 16.582031 39.855469 17.421875 40.066406 L 20.546875 40.847656 C 20.648438 41.121094 20.761719 41.394531 20.890625 41.664063 L 19.226563 44.433594 C 18.785156 45.171875 18.902344 46.113281 19.511719 46.722656 L 21.277344 48.488281 C 21.886719 49.097656 22.828125 49.214844 23.566406 48.769531 L 26.332031 47.109375 C 26.605469 47.238281 26.878906 47.351563 27.152344 47.453125 L 27.933594 50.578125 C 28.140625 51.414063 28.890625 52 29.75 52 L 30 52 L 30 53 C 30 53.554688 30.449219 54 31 54 C 31.550781 54 32 53.554688 32 53 L 32 52 L 32.246094 52 C 33.109375 52 33.855469 51.414063 34.066406 50.578125 L 34.847656 47.453125 C 35.121094 47.351563 35.394531 47.238281 35.664063 47.109375 L 38.433594 48.769531 C 39.171875 49.210938 40.113281 49.097656 40.722656 48.488281 L 42.488281 46.722656 C 43.097656 46.113281 43.214844 45.171875 42.769531 44.433594 L 41.109375 41.664063 C 41.234375 41.394531 41.351563 41.121094 41.453125 40.847656 L 44.578125 40.066406 C 45.414063 39.855469 46 39.109375 46 38.246094 L 46 35.753906 C 46 34.890625 45.414063 34.144531 44.578125 33.933594 L 41.453125 33.152344 C 41.351563 32.878906 41.238281 32.605469 41.109375 32.335938 L 42.773438 29.566406 C 43.214844 28.828125 43.097656 27.886719 42.488281 27.277344 L 40.722656 25.511719 C 40.113281 24.902344 39.171875 24.785156 38.433594 25.230469 L 35.667969 26.890625 C 35.394531 26.761719 35.121094 26.648438 34.847656 26.546875 L 34.066406 23.421875 C 33.859375 22.585938 33.109375 22 32.25 22 L 29.753906 22 C 28.890625 22 28.144531 22.585938 27.933594 23.421875 Z M 32.148438 24 L 33.039063 27.558594 C 33.125 27.898438 33.378906 28.167969 33.714844 28.273438 C 34.222656 28.429688 34.738281 28.644531 35.246094 28.914063 C 35.554688 29.078125 35.929688 29.066406 36.226563 28.886719 L 39.378906 26.996094 L 41.003906 28.621094 L 39.113281 31.773438 C 38.933594 32.074219 38.921875 32.445313 39.085938 32.753906 C 39.355469 33.261719 39.570313 33.777344 39.726563 34.285156 C 39.832031 34.621094 40.101563 34.875 40.4375 34.960938 L 44 35.851563 L 44 38.152344 L 40.441406 39.039063 C 40.101563 39.125 39.832031 39.382813 39.726563 39.714844 C 39.570313 40.222656 39.355469 40.738281 39.085938 41.246094 C 38.925781 41.558594 38.933594 41.929688 39.113281 42.226563 L 41.007813 45.378906 L 39.378906 47.007813 L 36.226563 45.113281 C 35.929688 44.933594 35.558594 44.925781 35.246094 45.085938 C 34.738281 45.355469 34.222656 45.570313 33.714844 45.730469 C 33.382813 45.832031 33.125 46.101563 33.039063 46.441406 L 32.148438 50 L 29.851563 50 L 28.960938 46.441406 C 28.875 46.101563 28.621094 45.832031 28.285156 45.726563 C 27.777344 45.570313 27.261719 45.355469 26.753906 45.085938 C 26.445313 44.921875 26.070313 44.933594 25.773438 45.113281 L 22.621094 47.003906 L 20.996094 45.378906 L 22.886719 42.226563 C 23.066406 41.925781 23.078125 41.554688 22.914063 41.246094 C 22.648438 40.738281 22.433594 40.222656 22.273438 39.714844 C 22.167969 39.378906 21.898438 39.125 21.5625 39.039063 L 18 38.148438 L 18 35.851563 L 21.558594 34.960938 C 21.898438 34.875 22.167969 34.621094 22.269531 34.285156 C 22.429688 33.777344 22.644531 33.261719 22.910156 32.753906 C 23.074219 32.441406 23.0625 32.070313 22.886719 31.773438 L 20.992188 28.621094 L 22.617188 26.996094 L 25.769531 28.886719 C 26.070313 29.066406 26.441406 29.078125 26.75 28.914063 C 27.257813 28.644531 27.773438 28.429688 28.285156 28.273438 C 28.617188 28.167969 28.871094 27.898438 28.957031 27.558594 L 29.851563 24 Z "/>
<path style=" stroke:none;fill-rule:nonzero;fill:#8D6C9F;fill-opacity:1;" d="M 26 37 C 26 39.757813 28.242188 42 31 42 C 33.757813 42 36 39.757813 36 37 C 36 34.242188 33.757813 32 31 32 C 28.242188 32 26 34.242188 26 37 Z M 31 34 C 32.652344 34 34 35.347656 34 37 C 34 38.652344 32.652344 40 31 40 C 29.347656 40 28 38.652344 28 37 C 28 35.347656 29.347656 34 31 34 Z "/>
<path style=" stroke:none;fill-rule:nonzero;fill:#8D6C9F;fill-opacity:1;" d="M 41 50 C 40.449219 50 40 50.445313 40 51 L 40 53 C 40 53.554688 40.449219 54 41 54 C 41.550781 54 42 53.554688 42 53 L 42 51 C 42 50.445313 41.550781 50 41 50 Z "/>
<path style=" stroke:none;fill-rule:nonzero;fill:#8D6C9F;fill-opacity:1;" d="M 36 50 C 35.449219 50 35 50.445313 35 51 L 35 53 C 35 53.554688 35.449219 54 36 54 C 36.550781 54 37 53.554688 37 53 L 37 51 C 37 50.445313 36.550781 50 36 50 Z "/>
<path style=" stroke:none;fill-rule:nonzero;fill:#8D6C9F;fill-opacity:1;" d="M 45 51 L 45 53 C 45 53.554688 45.449219 54 46 54 C 46.550781 54 47 53.554688 47 53 L 47 51 C 47 50.445313 46.550781 50 46 50 C 45.449219 50 45 50.445313 45 51 Z "/>
<path style=" stroke:none;fill-rule:nonzero;fill:#8D6C9F;fill-opacity:1;" d="M 51 54 C 51.550781 54 52 53.554688 52 53 L 52 51 C 52 50.445313 51.550781 50 51 50 C 50.449219 50 50 50.445313 50 51 L 50 53 C 50 53.554688 50.449219 54 51 54 Z "/>
<path style=" stroke:none;fill-rule:nonzero;fill:#8D6C9F;fill-opacity:1;" d="M 11 50 C 10.449219 50 10 50.445313 10 51 L 10 53 C 10 53.554688 10.449219 54 11 54 C 11.550781 54 12 53.554688 12 53 L 12 51 C 12 50.445313 11.550781 50 11 50 Z "/>
<path style=" stroke:none;fill-rule:nonzero;fill:#8D6C9F;fill-opacity:1;" d="M 16 50 C 15.449219 50 15 50.445313 15 51 L 15 53 C 15 53.554688 15.449219 54 16 54 C 16.550781 54 17 53.554688 17 53 L 17 51 C 17 50.445313 16.550781 50 16 50 Z "/>
<path style=" stroke:none;fill-rule:nonzero;fill:#8D6C9F;fill-opacity:1;" d="M 21 50 C 20.449219 50 20 50.445313 20 51 L 20 53 C 20 53.554688 20.449219 54 21 54 C 21.550781 54 22 53.554688 22 53 L 22 51 C 22 50.445313 21.550781 50 21 50 Z "/>
<path style=" stroke:none;fill-rule:nonzero;fill:#8D6C9F;fill-opacity:1;" d="M 26 50 C 25.449219 50 25 50.445313 25 51 L 25 53 C 25 53.554688 25.449219 54 26 54 C 26.550781 54 27 53.554688 27 53 L 27 51 C 27 50.445313 26.550781 50 26 50 Z "/>
</g>
</svg>
